# xmcd CD database file
#
# Track frame offsets:
#	150
#	26005
#	52065
#	77212
#	101977
#	134047
#	157077
#	182357
#	203660
#	232992
#
# Disc length: 3573 seconds
#
# Revision: 9
# Processed by: cddbd v1.5.2PL0 Copyright (c) Steve Scherf et al.
# Submitted via: CDex 1.70beta3
#
DISCID=890df30a
DTITLE=尾崎豊 - 誕生 - Disc1
DYEAR=1990
DGENRE=J-Pop
TTITLE0=LOVE WAY
TTITLE1=KISS
TTITLE2=黄昏ゆく街で
TTITLE3=ロザーナ
TTITLE4=RED SHOES STORY
TTITLE5=銃声の証明
TTITLE6=LONELY ROSE
TTITLE7=置き去りの愛
TTITLE8=COOKIE
TTITLE9=永遠の胸
EXTD=YEAR: 1990
EXTT0=
EXTT1=
EXTT2=
EXTT3=
EXTT4=
EXTT5=
EXTT6=
EXTT7=
EXTT8=
EXTT9=
PLAYORDER=
